<?xml version="1.0" encoding="UTF-8"?>
<svg width="800px" height="800px" viewBox="0 0 24 24" version="1.1" xmlns="http://www.w3.org/2000/svg">
    <title>Key Management</title>
    <g stroke="none" stroke-width="1" fill="none" fill-rule="evenodd">
        <path d="M12,1 C14.7614237,1 17,3.23857625 17,6 C17,7.12344923 16.6191918,8.16003615 15.9919388,8.99909348 L21.2929437,14.3000984 C21.6834682,14.6906229 21.6834682,15.3237779 21.2929437,15.7143024 C20.9024193,16.1048269 20.2692643,16.1048269 19.8787398,15.7143024 L19.5,15.3355627 L19.5,17.5 C19.5,18.3284271 18.8284271,19 18,19 L16,19 L16,20 C16,20.8284271 15.3284271,21.5 14.5,21.5 L9.5,21.5 C8.67157288,21.5 8,20.8284271 8,20 L8.00090652,15.9919388 C7.16003615,16.6191918 6.12344923,17 5,17 C2.23857625,17 0,14.7614237 0,12 C0,9.23857625 2.23857625,7 5,7 C6.12344923,7 7.16003615,7.38080824 7.99909348,8.00806116 L8,8 L12,12 L13,11 L9,7 C8.38080824,6.16003615 8,5.12344923 8,4 C8,1.23857625 10.2385763,-1.25584071e-15 13,-9.59232693e-16 L12,1 Z M5,9 C3.34314575,9 2,10.3431458 2,12 C2,13.6568542 3.34314575,15 5,15 C5.74009532,15 6.41177663,14.7220133 6.91087728,14.2526855 L7.29289322,13.8535534 C7.68341751,13.4630291 8.31658249,13.4630291 8.70710678,13.8535534 C9.09763107,14.2440777 9.09763107,14.8772427 8.70710678,15.2677669 L8.31066018,15.6642135 C7.7672199,16.2076538 7.10060601,16.6039294 6.36396103,16.8054736 L6,19 L14.5,19 C14.7761424,19 15,19.2238576 15,19.5 L15,20 C15,20.2761424 14.7761424,20.5 14.5,20.5 L9.5,20.5 C9.22385763,20.5 9,20.2761424 9,20 L9,17.7999878 L9.58578644,17.2142014 C10.1417204,16.6582674 10.1417204,15.7569973 9.58578644,15.2010633 L9.31066017,14.9259571 L10.0180931,14.2185242 L10.7071068,13.5294983 C11.0976311,13.1389821 11.7307961,13.1389821 12.1213203,13.5294983 C12.5118446,13.9200145 12.5118446,14.5531795 12.1213203,14.9436957 L11.8251747,15.2398414 L16.3661165,15.2398414 L17.4393398,14.1666224 C17.447307,14.1586553 17.4555016,14.1507636 17.4639233,14.1429571 L14.3661165,11.0451503 L12.7077214,12.7035455 C12.3171972,13.0940697 11.6840322,13.0940697 11.2935079,12.7035455 C10.9029836,12.3130212 10.9029836,11.6798562 11.2935079,11.2893319 L12.9519031,9.63093675 L12,8.67903261 L9.91087728,10.7681553 L9.51471863,11.1643002 C9.12419433,11.5548144 8.49102936,11.5548144 8.10050506,11.1643002 C7.70998077,10.7737859 7.70998077,10.1406209 8.10050506,9.75010664 L8.4966762,9.35393551 C7.96465022,8.90346027 7.27761224,8.63103147 6.53553391,8.59513901 L6,8.59513901 L6,8.4142797 C6,8.14814472 6.22385763,7.9242871 6.5,7.9242871 L9.5,7.9242871 C9.77614237,7.9242871 10,8.14814472 10,8.4142871 L10,8.58477783 L10.3033447,8.28143316 C10.3013028,8.1888927 10.3002794,8.09574506 10.3002794,8.00204362 C10.3002794,5.79132411 12.0910738,4.00052971 14.3017933,4.00052971 C16.5125128,4.00052971 18.3033073,5.79132411 18.3033073,8.00204362 C18.3033073,8.09574506 18.3022838,8.1888927 18.3002419,8.28143316 L18.5857864,8.00204362 L18.6,8.00204362 L18.6,8.42435676 C18.6,8.69049175 18.3761424,8.91434937 18.1,8.91434937 L15.1,8.91434937 C14.8238576,8.91434937 14.6,8.69049175 14.6,8.42435676 L14.6,8.00204362 L14.584564,8.00204362 C14.584564,6.89747387 13.6891338,6.00204362 12.584564,6.00204362 C11.4799943,6.00204362 10.584564,6.89747387 10.584564,8.00204362 C10.584564,9.10661336 11.4799943,10.0020436 12.584564,10.0020436 C12.8607064,10.0020436 13.084564,10.2259012 13.084564,10.5020436 C13.084564,10.7781861 12.8607064,11.0020436 12.584564,11.0020436 C10.9277347,11.0020436 9.58456401,9.65887293 9.58456401,8.00204362 C9.58456401,7.5437829 9.67566638,7.10799547 9.8378295,6.71092068 C9.34493819,6.27447803 8.70760686,6 8,6 L7.99909348,6.00806116 C7.16003615,6.63919176 6.12344923,7.02 5,7.02 C4.65799451,7.02 4.32444777,6.98264872 4,6.91175922 L4,5 C4,3.34314575 5.34314575,2 7,2 C8.65685425,2 10,3.34314575 10,5 C10,5.87994873 9.64387819,6.67552929 9.0680481,7.2358242 C9.02257018,7.4876174 9,7.74481195 9,8.00806116 L10.586,9.594 L11.5858659,8.59462983 C11.4860859,8.41246291 11.4099255,8.21695592 11.3618791,8.01173683 C10.8532006,7.38099835 10.5427189,6.60355049 10.5067301,5.7495933 L10.5,5.5 C10.5,3.01471863 12.5147186,1 15,1 C17.4852814,1 19.5,3.01471863 19.5,5.5 C19.5,7.65569263 18.0031084,9.48184536 16.0157,9.90745703 L16,15 L17,15 C17.5522847,15 18,15.4477153 18,16 L18,17 L20,17 L20,14.9142005 L18.7071068,13.6213073 C18.3165825,13.2307831 18.3165825,12.5976181 18.7071068,12.2070938 C19.0976311,11.8165696 19.7307961,11.8165696 20.1213203,12.2070938 L20.5,12.5857735 L20.5,12 C20.5,11.4477153 20.9477153,11 21.5,11 C22.0522847,11 22.5,11.4477153 22.5,12 L22.5,15 C22.5,15.828 21.828,16.5 21,16.5 L18.5,16.5 L18.5,18 L16.2928932,18 L16.2928932,19 L15,19 L14.5,19 L14.5,16.8284271 C14.5,16.5522847 14.7238576,16.3284271 15,16.3284271 C15.2761424,16.3284271 15.5,16.5522847 15.5,16.8284271 L15.5,18 L15.707,18 L15.7071068,17 L16.5,17 L16.5,17 L17,17 L17,16 L16,16 L16,16 L16,15 L15,15 L15,14.7069374 C15,14.4307949 15.2238576,14.2069374 15.5,14.2069374 C15.7761424,14.2069374 16,14.4307949 16,14.7069374 L16,14 L15,14 C14.4477153,14 14,13.5522847 14,13 L14,10.8284271 C14,10.5522847 14.2238576,10.3284271 14.5,10.3284271 C14.7761424,10.3284271 15,10.5522847 15,10.8284271 L15,13 L15.5,13 L15.5,9.97778645 C13.8873877,9.70233333 12.5802259,8.4183244 12.1950287,6.74483452 C11.2338464,6.37787481 10.5,5.48130816 10.5,4.4336753 C10.5,3.05448098 11.6208457,1.93363523 13,1.93363523 C14.3791543,1.93363523 15.5,3.05448098 15.5,4.4336753 C15.5,4.65280689 15.4708847,4.86382942 15.416016,5.06308134 C16.9206314,5.28730132 18.0887652,6.54352069 18.0996149,8.05626214 L18.1,8.50204362 L18.1,8.41434937 L17.1,8.41434937 L17.1,8.00204362 L17.0855255,8.00204362 C17.0855255,6.34520681 15.7423633,5.00204362 14.0855255,5.00204362 C12.4286878,5.00204362 11.0855255,6.34520681 11.0855255,8.00204362 C11.0855255,9.65888042 12.4286878,11.0020436 14.0855255,11.0020436 C14.3616679,11.0020436 14.5855255,11.2259012 14.5855255,11.5020436 C14.5855255,11.7781861 14.3616679,12.0020436 14.0855255,12.0020436 C11.8762752,12.0020436 10.0855255,10.2112939 10.0855255,8.00204362 C10.0855255,6.67534882 10.6925593,5.49504193 11.6349215,4.75382587 C11.4818934,4.35293077 11.4027524,3.9096834 11.4027524,3.4462136 C11.4027524,3.30048216 11.4109005,3.15677349 11.4266624,3.01588668 C10.8937514,2.58699608 10.5567749,1.94707356 10.5085466,1.22625793 L10.5026652,1 L15.4973348,1 L15.4914535,1.22625793 C15.4432251,1.94707356 15.1062486,2.58699608 14.5733376,3.01588668 C14.5890995,3.15677349 14.5972476,3.30048216 14.5972476,3.4462136 C14.5972476,3.90968428 14.5181058,4.3529323 14.3650765,4.75382858 C15.3074377,5.49504193 15.9144715,6.67534882 15.9144715,8.00204362 C15.9144715,8.21695592 15.8964057,8.42783359 15.861449,8.63295267 C16.5677992,8.10279679 17,7.2771093 17,6.35103809 L17,6.35103809 L17,5.93363523 L15.8917408,5.93363523 C15.3394561,5.93363523 14.8917408,5.48591997 14.8917408,4.93363523 L14.8917408,4.4336753 C14.8917408,3.39107047 14.0425951,2.54189447 12.9998063,2.54189447 C11.9570176,2.54189447 11.1078718,3.39107047 11.1078718,4.4336753 C11.1078718,5.47627366 11.9570116,6.32545015 12.9997943,6.32545015 C13.552079,6.32545015 14.0304651,5.87773489 14.0304651,5.32545015 L14.0304651,4.93363523 L13,4.93363523 L13,5.43363523 C13,5.43363523 12.4477153,5.43363523 12,5.43363523 C11.5522847,5.43363523 11,5.43363523 11,5.43363523 L11,3.4336753 C11,3.4336753 11.5522847,3.4336753 12,3.4336753 C12.4477153,3.4336753 13,3.4336753 13,3.4336753 L13,3.93363523 L14.0304651,3.93363523 L14.0304651,3.4336753 C14.0304651,2.88139056 13.5527007,2.4336753 13,2.4336753 C12.4472993,2.4336753 11.9695349,2.88139056 11.9695349,3.4336753 L11.9695349,3.93363523 L11.1078718,3.93363523 L11.1078718,3.4336753 C11.1078718,3.4336753 11.1078718,2.4336753 12,2.4336753 C12.8921282,2.4336753 14,2.9336753 14,3.4336753 L14,4.4336753 C14,4.9336753 13.784,5.32545015 13,5.32545015 C12.216,5.32545015 12,4.9336753 12,4.4336753 C12,3.9336753 12.216,3.54189447 13,3.54189447 C13.784,3.54189447 14,3.9336753 14,4.4336753 L14,4.93363523 L14.8917408,4.93363523 L14.8917408,4.4336753 C14.8917408,3.4336753 14.118,2.54189447 13,2.54189447 C11.882,2.54189447 11.1078718,3.4336753 11.1078718,4.4336753 L11.1078718,5.93363523 L12,5.93363523 C12.5522847,5.93363523 13,6.38135049 13,6.93363523 L13,11.4336352 C13,11.986 12.5522847,12.4336352 12,12.4336352 C11.4477153,12.4336352 11,11.986 11,11.4336352 L11,6.93363523 C11,6.38135049 11.4477153,5.93363523 12,5.93363523 L13,5.93363523 L13,6.93363523 L12,6.93363523 L12,11.4336352 L13,11.4336352 L13,6.93363523 L14.5,6.93363523 L14.5,6.35103809 C14.5,5.24646834 13.6045695,4.35103809 12.5,4.35103809 C11.3954305,4.35103809 10.5,5.24646834 10.5,6.35103809 L10.5,8.35103809 C10.5,9.45560783 11.3954305,10.3510381 12.5,10.3510381 C13.6045695,10.3510381 14.5,9.45560783 14.5,8.35103809 L14.5,7.43363523 L15.5,7.43363523 L15.5,8.35103809 C15.5,10.0078759 14.1568542,11.3510381 12.5,11.3510381 C10.8431458,11.3510381 9.5,10.0078759 9.5,8.35103809 L9.5,6.35103809 C9.5,4.69420128 10.8431458,3.35103809 12.5,3.35103809 C14.1568542,3.35103809 15.5,4.69420128 15.5,6.35103809 L15.5,5.93363523 L17,5.93363523 L17,6.35103809 C17,7.8267943 16.1652598,9.13608841 14.9337159,9.61494977 C14.9773102,9.73957537 15,9.87248961 15,10.0104836 L15,13 L16,13 C16.5522847,13 17,13.4477153 17,14 L17,15 L18,15 C18.5522847,15 19,15.4477153 19,16 L19,17 L20,17 L20,16 C20,15.4477153 20.4477153,15 21,15 L21,16 L21,17 L21,18 L18,18 L18,17 L17,17 L17,16 L16,16 L16,15 L15,15 L15,14 L14,14 C13.4477153,14 13,13.5522847 13,13 L13,10.0104836 C13,9.45819884 13.4477153,9.01048358 14,9.01048358 C14.5522847,9.01048358 15,9.45819884 15,10.0104836 L15,13 L16,13 L16,10.0104836 C16,9.67106075 15.8826536,9.35765796 15.6841747,9.10963092 C14.1924103,8.76156713 13.0559523,7.45789544 13.0024411,5.87391268 C12.0316878,5.51322416 11.2947626,4.62268242 11.2947626,3.57775225 C11.2947626,2.20733298 12.4054235,1.09667208 13.7758427,1.09667208 C15.146262,1.09667208 16.2569228,2.20733298 16.2569228,3.57775225 C16.2569228,3.80226383 16.2267732,4.01849808 16.1698068,4.22240805 C17.6772535,4.45161346 18.8419764,5.70876714 18.8419764,7.22044641 C18.8419764,7.2935357 18.8401841,7.36631172 18.8366482,7.438653 C18.9118677,7.45435547 18.9713791,7.49119883 19.0128787,7.54292243 L19.7071068,8.23715054 C19.8880712,8.41811498 19.8880712,8.71470413 19.7071068,8.89566857 C19.5261423,9.076633 19.2295532,9.076633 19.0485887,8.89566857 L18.3543607,8.20144046 C18.3128611,8.14971686 18.2902297,8.07990652 18.2902297,8.00726388 C18.2902297,7.93462123 18.3128611,7.86481089 18.3543607,7.81308729 L19.0485887,7.11885919 C19.2295532,6.93789475 19.5261423,6.93789475 19.7071068,7.11885919 C19.8880712,7.29982362 19.8880712,7.59641277 19.7071068,7.77737721 L19.0128787,8.47160531 C18.9713791,8.52332891 18.9118677,8.56017227 18.8366482,8.57587474 C18.8401841,8.64821601 18.8419764,8.72099204 18.8419764,8.79408133 C18.8419764,10.3057606 17.6772535,11.5629143 16.1698068,11.7921196 C16.2267732,11.9960296 16.2569228,12.2122639 16.2569228,12.4367754 C16.2569228,13.8071947 15.146262,14.9178556 13.7758427,14.9178556 C12.4054235,14.9178556 11.2947626,13.8071947 11.2947626,12.4367754 C11.2947626,11.3918453 12.0316878,10.5013035 13.0024411,10.140615 C13.0559523,8.55663223 14.1924103,7.25296054 15.6841747,6.90489675 C15.8826536,6.65686971 16,6.34346692 16,6.00404407 L16,8.79408133 C16,10.3057606 17.1647229,11.5629143 18.6721696,11.7921196 C18.6152032,11.9960296 18.5850536,12.2122639 18.5850536,12.4367754 C18.5850536,13.8071947 17.4743927,14.9178556 16.1039735,14.9178556 C14.7335542,14.9178556 13.6228934,13.8071947 13.6228934,12.4367754 C13.6228934,12.2122639 13.653043,11.9960296 13.7100094,11.7921196 C12.2025627,11.5629143 11.0378398,10.3057606 11.0378398,8.79408133 C11.0378398,8.72099204 11.0396321,8.64821601 11.043168,8.57587474 C10.9679485,8.56017227 10.9084371,8.52332891 10.8669375,8.47160531 L10.1727094,7.77737721 C9.99174494,7.59641277 9.99174494,7.29982362 10.1727094,7.11885919 C10.3536739,6.93789475 10.650263,6.93789475 10.8312274,7.11885919 L11.5254555,7.81308729 C11.5669551,7.86481089 11.5895865,7.93462123 11.5895865,8.00726388 C11.5895865,8.07990652 11.5669551,8.14971686 11.5254555,8.20144046 L10.8312274,8.89566857 C10.650263,9.076633 10.3536739,9.076633 10.1727094,8.89566857 C9.99174494,8.71470413 9.99174494,8.41811498 10.1727094,8.23715054 L10.8669375,7.54292243 C10.9084371,7.49119883 10.9679485,7.45435547 11.043168,7.438653 C11.0396321,7.36631172 11.0378398,7.2935357 11.0378398,7.22044641 C11.0378398,5.70876714 12.2025627,4.45161346 13.7100094,4.22240805 C13.653043,4.01849808 13.6228934,3.80226383 13.6228934,3.57775225 C13.6228934,2.20733298 14.7335542,1.09667208 16.1039735,1.09667208 C17.4743927,1.09667208 18.5850536,2.20733298 18.5850536,3.57775225 C18.5850536,4.62268242 17.8481284,5.51322416 16.8773751,5.87391268 C16.8238638,7.45789544 15.6874059,8.76156713 14.1956415,9.10963092 C13.9971626,9.35765796 13.8798162,9.67106075 13.8798162,10.0104836 L13.8798162,13 L14.8798162,13 L14.8798162,10.0104836 C14.8798162,9.45819884 15.3275315,9.01048358 15.8798162,9.01048358 C16.432101,9.01048358 16.8798162,9.45819884 16.8798162,10.0104836 L16.8798162,13 C16.8798162,13.5522847 16.432101,14 15.8798162,14 L14.8798162,14 L14.8798162,15 L15.8798162,15 L15.8798162,16 L16.8798162,16 L16.8798162,17 L15.8798162,17 L15.8798162,18 L14.8798162,18 L14.8798162,17 L13.8798162,17 L13.8798162,16 L14.8798162,16 L14.8798162,15 L13.8798162,15 L13.8798162,14 L12.8798162,14 C12.3275315,14 11.8798162,13.5522847 11.8798162,13 L11.8798162,10.0104836 C11.8798162,9.67106075 11.7624698,9.35765796 11.5639909,9.10963092 C10.0722265,8.76156713 8.9357686,7.45789544 8.8822573,5.87391268 C7.91150399,5.51322416 7.17457884,4.62268242 7.17457884,3.57775225 C7.17457884,2.20733298 8.28523974,1.09667208 9.65565902,1.09667208 C11.0260783,1.09667208 12.1367392,2.20733298 12.1367392,3.57775225 C12.1367392,3.80226383 12.1065896,4.01849808 12.0496232,4.22240805 C13.5570699,4.45161346 14.7217928,5.70876714 14.7217928,7.22044641 C14.7217928,7.2935357 14.7200005,7.36631172 14.7164646,7.438653 C14.7916841,7.45435547 14.8511955,7.49119883 14.8926951,7.54292243 L15.5869232,8.23715054 C15.7678876,8.41811498 15.7678876,8.71470413 15.5869232,8.89566857 C15.4059587,9.076633 15.1093696,9.076633 14.9284051,8.89566857 L14.2341771,8.20144046 C14.1926775,8.14971686 14.1700461,8.07990652 14.1700461,8.00726388 C14.1700461,7.93462123 14.1926775,7.86481089 14.2341771,7.81308729 L14.9284051,7.11885919 C15.1093696,6.93789475 15.4059587,6.93789475 15.5869232,7.11885919 C15.7678876,7.29982362 15.7678876,7.59641277 15.5869232,7.77737721 L14.8926951,8.47160531 C14.8511955,8.52332891 14.7916841,8.56017227 14.7164646,8.57587474 C14.7200005,8.64821601 14.7217928,8.72099204 14.7217928,8.79408133 C14.7217928,10.3057606 13.5570699,11.5629143 12.0496232,11.7921196 C12.1065896,11.9960296 12.1367392,12.2122639 12.1367392,12.4367754 C12.1367392,13.8071947 11.0260783,14.9178556 9.65565902,14.9178556 C8.28523974,14.9178556 7.17457884,13.8071947 7.17457884,12.4367754 C7.17457884,11.3918453 7.91150399,10.5013035 8.8822573,10.140615 C8.9357686,8.55663223 10.0722265,7.25296054 11.5639909,6.90489675 C11.7624698,6.65686971 11.8798162,6.34346692 11.8798162,6.00404407 L11.8798162,3.00404407 C11.8798162,2.4517593 12.3275315,2.00404407 12.8798162,2.00404407 C13.432101,2.00404407 13.8798162,2.4517593 13.8798162,3.00404407 L13.8798162,6.00404407 C13.8798162,6.34346692 13.9971626,6.65686971 14.1956415,6.90489675 C15.6874059,7.25296054 16.8238638,8.55663223 16.8773751,10.140615 C17.8481284,10.5013035 18.5850536,11.3918453 18.5850536,12.4367754 C18.5850536,13.8071947 17.4743927,14.9178556 16.1039735,14.9178556 C14.7335542,14.9178556 13.6228934,13.8071947 13.6228934,12.4367754 C13.6228934,11.3918453 14.3598186,10.5013035 15.3305719,10.140615 C15.3840831,8.55663223 16.520541,7.25296054 18.0123054,6.90489675 C18.2107843,6.65686971 18.3281307,6.34346692 18.3281307,6.00404407 L18.3281307,3.00404407 C18.3281307,2.4517593 18.775846,2.00404407 19.3281307,2.00404407 C19.8804155,2.00404407 20.3281307,2.4517593 20.3281307,3.00404407 L20.3281307,6.00404407 C20.3281307,6.34346692 20.2107843,6.65686971 20.0123054,6.90489675 C18.520541,7.25296054 17.3840831,8.55663223 17.3305719,10.140615 C16.3598186,10.5013035 15.6228934,11.3918453 15.6228934,12.4367754 C15.6228934,13.8071947 16.7335542,14.9178556 18.1039735,14.9178556 C19.4743927,14.9178556 20.5850536,13.8071947 20.5850536,12.4367754 C20.5850536,11.3918453 19.8481284,10.5013035 18.8773751,10.140615 C18.8378471,9.09363475 18.2414517,8.18155926 17.3664975,7.65970243 C17.3578003,7.65351787 17.3492538,7.64726385 17.3408682,7.64094128 L16.6466401,6.94671318 C16.4656757,6.76574874 16.4656757,6.46915959 16.6466401,6.28819515 C16.8276046,6.10723072 17.1241937,6.10723072 17.3051582,6.28819515 L17.9993862,6.98242326 C18.0408858,7.03414686 18.0635172,7.1039572 18.0635172,7.17659984 C18.0635172,7.24924249 18.0408858,7.31905283 17.9993862,7.37077643 L17.3051582,8.06500453 C17.1241937,8.24596897 16.8276046,8.24596897 16.6466401,8.06500453 C16.4656757,7.8840401 16.4656757,7.58745094 16.6466401,7.40648651 L17.3408682,6.71225841 C17.3492538,6.70593583 17.3578003,6.69968181 17.3664975,6.69349725 C16.4915433,6.17164042 15.8951479,5.25956493 15.8556199,4.21258866 C14.8848666,3.85190014 14.1479414,2.9613584 14.1479414,1.91642823 C14.1479414,0.54600896 15.2586022,-0.56465195 16.629022,-0.56465195 C17.9994413,-0.56465195 19.1101022,0.54600896 19.1101022,1.91642823 C19.1101022,2.9613584 18.373177,3.85190014 17.4024237,4.21258866 C17.3629125,5.25956493 16.7665171,6.17164042 15.8915629,6.69349725 C15.9002601,6.69968181 15.9088066,6.70593583 15.9171922,6.71225841 L16.6114203,7.40648651 C16.7923847,7.58745094 16.7923847,7.8840401 16.6114203,8.06500453 C16.4304558,8.24596897 16.1338667,8.24596897 15.9529022,8.06500453 L15.2586742,7.37077643 C15.2171746,7.31905283 15.1945432,7.24924249 15.1945432,7.17659984 C15.1945432,7.1039572 15.2171746,7.03414686 15.2586742,6.98242326 L15.9529022,6.28819515 C16.1338667,6.10723072 16.4304558,6.10723072 16.6114203,6.28819515 C16.7923847,6.46915959 16.7923847,6.76574874 16.6114203,6.94671318 L15.9171922,7.64094128 C15.9088066,7.64726385 15.9002601,7.65351787 15.8915629,7.65970243 C15.0166087,8.18155926 14.4202133,9.09363475 14.3806853,10.140615 C13.409932,10.5013035 12.6730068,11.3918453 12.6730068,12.4367754 C12.6730068,13.8071947 13.7836677,14.9178556 15.154087,14.9178556 C16.5245062,14.9178556 17.6351671,13.8071947 17.6351671,12.4367754 C17.6351671,11.3918453 16.8982419,10.5013035 15.9274886,10.140615 C15.8869773,9.09363368 15.2905801,8.18155733 14.4156223,7.6597008 L7,1.00000763 Z" id="path-1" fill="#000000" fill-rule="nonzero"></path>
    </g>
</svg>