<?xml version="1.0" encoding="UTF-8"?>
<svg width="800px" height="800px" viewBox="0 0 24 24" version="1.1" xmlns="http://www.w3.org/2000/svg">
    <title>Space Analytics</title>
    <g stroke="none" stroke-width="1" fill="none" fill-rule="evenodd">
        <path d="M3,22 L21,22 C21.5522847,22 22,21.5522847 22,21 L22,3 C22,2.44771525 21.5522847,2 21,2 L3,2 C2.44771525,2 2,2.44771525 2,3 L2,21 C2,21.5522847 2.44771525,22 3,22 Z M4,20 L4,4 L20,4 L20,20 L4,20 Z" id="Rectangle" fill="#000000" fill-rule="nonzero"></path>
        <path d="M16,14 C17.1045695,14 18,13.1045695 18,12 C18,10.8954305 17.1045695,10 16,10 C14.8954305,10 14,10.8954305 14,12 C14,13.1045695 14.8954305,14 16,14 Z M16,16 C13.790861,16 12,14.209139 12,12 C12,9.790861 13.790861,8 16,8 C18.209139,8 20,9.790861 20,12 C20,14.209139 18.209139,16 16,16 Z" id="Oval" fill="#000000" fill-rule="nonzero"></path>
        <path d="M7,10 L10,10 C10.5522847,10 11,9.55228475 11,9 L11,6 C11,5.44771525 10.5522847,5 10,5 L7,5 C6.44771525,5 6,5.44771525 6,6 L6,9 C6,9.55228475 6.44771525,10 7,10 Z M8,8 L8,7 L9,7 L9,8 L8,8 Z" id="Rectangle" fill="#000000" fill-rule="nonzero"></path>
        <path d="M7,19 L10,19 C10.5522847,19 11,18.5522847 11,18 L11,15 C11,14.4477153 10.5522847,14 10,14 L7,14 C6.44771525,14 6,14.4477153 6,15 L6,18 C6,18.5522847 6.44771525,19 7,19 Z M8,17 L8,16 L9,16 L9,17 L8,17 Z" id="Rectangle-Copy" fill="#000000" fill-rule="nonzero"></path>
        <rect id="Rectangle" fill="#000000" x="14" y="18" width="4" height="1" rx="0.5"></rect>
        <path d="M3.5,11 L8.5,11 C8.77614237,11 9,11.2238576 9,11.5 C9,11.7761424 8.77614237,12 8.5,12 L3.5,12 C3.22385763,12 3,11.7761424 3,11.5 C3,11.2238576 3.22385763,11 3.5,11 Z" id="Line" fill="#000000" fill-rule="nonzero"></path>
        <path d="M11.5,8 L12.5,8 C12.7761424,8 13,8.22385763 13,8.5 C13,8.77614237 12.7761424,9 12.5,9 L11.5,9 C11.2238576,9 11,8.77614237 11,8.5 C11,8.22385763 11.2238576,8 11.5,8 Z" id="Line-Copy" fill="#000000" fill-rule="nonzero"></path>
        <path d="M11.5,14 L12.5,14 C12.7761424,14 13,14.2238576 13,14.5 C13,14.7761424 12.7761424,15 12.5,15 L11.5,15 C11.2238576,15 11,14.7761424 11,14.5 C11,14.2238576 11.2238576,14 11.5,14 Z" id="Line-Copy-2" fill="#000000" fill-rule="nonzero"></path>
    </g>
</svg>